<?xml version="1.0" encoding="utf-8"?>
<!-- Generator: Adobe Illustrator 27.5.0, SVG Export Plug-In . SVG Version: 6.00 Build 0)  -->
<svg version="1.1" xmlns="http://www.w3.org/2000/svg" xmlns:xlink="http://www.w3.org/1999/xlink" x="0px" y="0px"
	 viewBox="0 0 500 500" style="enable-background:new 0 0 500 500;" xml:space="preserve">
<g id="BACKGROUND">
	<rect x="0.5" y="0.5" style="fill:#E8F9BB;" width="499" height="500"/>
</g>
<g id="OBJECTS">
	<g>
		<g>
			<g>
				<g>
					<polygon style="fill:#597B0B;" points="231.375,310.992 265.732,315.9 247.464,60.185 244.74,60.185 					"/>
					<polygon style="fill:#597B0B;" points="240.814,269.577 250.234,296.309 375.145,236.264 374.517,234.482 					"/>
					<polygon style="fill:#597B0B;" points="252.858,298.695 261.133,271.586 124.955,245.823 124.403,247.63 					"/>
					<polygon style="fill:#597B0B;" points="244.995,245.269 256.331,219.29 124.017,178.046 123.261,179.778 					"/>
					<polygon style="fill:#597B0B;" points="239.374,184.398 254.154,160.212 143.044,110.028 142.058,111.641 					"/>
					<polygon style="fill:#597B0B;" points="235.816,173.044 255.915,184.608 293.936,66.121 292.187,65.404 					"/>
					<polygon style="fill:#597B0B;" points="262.462,123.166 274.145,124.38 267.347,61.716 266.39,61.744 					"/>
					<polygon style="fill:#597B0B;" points="279.641,196.788 291.324,198.002 284.525,135.338 283.569,135.366 					"/>
					<polygon style="fill:#597B0B;" points="227.694,125.711 231.615,114.091 183.363,73.535 182.692,74.217 					"/>
					<polygon style="fill:#597B0B;" points="161.931,261.881 170.813,254.196 120.478,216.256 119.844,216.973 					"/>
					<polygon style="fill:#597B0B;" points="303.527,171.725 314.04,176.964 329.677,115.902 328.771,115.593 					"/>
					<polygon style="fill:#597B0B;" points="291.499,112.213 303.246,109.192 311.272,74.183 310.366,73.874 					"/>
					<polygon style="fill:#597B0B;" points="283.176,263.689 290.043,267.111 300.258,227.223 299.667,227.021 					"/>
					<polygon style="fill:#597B0B;" points="212.844,276.234 220.308,274.457 202.573,237.297 201.989,237.521 					"/>
					<polygon style="fill:#597B0B;" points="343.419,242.481 352.77,247.141 366.678,192.83 365.873,192.555 					"/>
					<polygon style="fill:#597B0B;" points="314.442,166.814 310.465,177.866 372.934,186.273 373.136,185.337 					"/>
					<polygon style="fill:#597B0B;" points="338.55,143.407 335.006,154.552 380.033,159.2 380.234,158.265 					"/>
					<polygon style="fill:#597B0B;" points="329.537,152.705 339.749,152.666 350.88,108.79 349.983,108.455 					"/>
					<polygon style="fill:#597B0B;" points="314.132,255.093 310.465,266.212 360.435,271.925 360.637,270.99 					"/>
					<polygon style="fill:#597B0B;" points="226.79,280.15 218.292,272.097 191.838,314.873 192.599,315.454 					"/>
					<polygon style="fill:#597B0B;" points="277.782,272.371 273.655,283.391 342.223,293.112 342.425,292.176 					"/>
					<polygon style="fill:#597B0B;" points="217.937,277.477 215.541,265.977 157.761,291.583 158.079,292.485 					"/>
					<polygon style="fill:#597B0B;" points="271.867,211.506 272.043,226.066 348.235,208.73 348.063,207.556 					"/>
					<polygon style="fill:#597B0B;" points="223.397,227.85 224.781,213.355 147.171,222.427 147.216,223.613 					"/>
					<polygon style="fill:#597B0B;" points="210.466,159.719 211.459,145.239 149.625,153.713 149.67,154.899 					"/>
					<polygon style="fill:#597B0B;" points="215.003,222.297 230.096,215.288 193.388,166.053 192.209,166.737 					"/>
					<polygon style="fill:#597B0B;" points="189.235,141.313 206.834,142.889 167.62,85.069 166.442,85.753 					"/>
					<polygon style="fill:#597B0B;" points="151.197,191.621 172.477,193.197 129.582,135.377 128.404,136.061 					"/>
					<polygon style="fill:#597B0B;" points="268.971,115.316 271.827,126.75 337.822,93.43 337.449,92.549 					"/>
					<polygon style="fill:#597B0B;" points="236.743,180.396 252.234,178.473 215.001,60.656 213.19,61.193 					"/>
					<polygon style="fill:#597B0B;" points="239.432,218.68 260.957,242.31 364.334,125.087 362.899,123.511 					"/>
				</g>
			</g>
			<g>
				<g>
					<g>
						<path style="fill:#8EC102;" d="M306.883,139.201c-16.154,5.23-17.45,15.378-16.42,21.764l14.788-18.714l-13.39,23.661
							c0.198,0.474,0.335,0.745,0.335,0.745C315.24,161.719,306.883,139.201,306.883,139.201z"/>
					</g>
					<g>
						<path style="fill:#8EC102;" d="M320.753,222.056c-16.9,1.637-20.347,11.269-20.713,17.728l18.464-15.099l-18.161,20.231
							c0.092,0.506,0.168,0.799,0.168,0.799C324.077,245.844,320.753,222.056,320.753,222.056z"/>
					</g>
					<g>
						<path style="fill:#8EC102;" d="M356.657,281.559c-10.494-13.348-20.464-11.055-26.1-7.88l22.673,7.404l-26.831-4.381
							c-0.376,0.35-0.583,0.572-0.583,0.572C338.419,297.188,356.657,281.559,356.657,281.559z"/>
					</g>
					<g>
						<path style="fill:#8EC102;" d="M366.359,256.887c-9.609-8.726-16.833-5.729-20.677-2.618l18.034,2.695l-20.783,0.113
							c-0.239,0.312-0.367,0.506-0.367,0.506C354.6,270.99,366.359,256.887,366.359,256.887z"/>
					</g>
					<g>
						<path style="fill:#8EC102;" d="M376.994,216.829c-12.98,0.13-16.241,7.238-16.947,12.133l15.06-10.279l-15.169,14.208
							c0.037,0.391,0.075,0.62,0.075,0.62C377.954,235.166,376.994,216.829,376.994,216.829z"/>
					</g>
					<g>
						<path style="fill:#8EC102;" d="M295.125,306.506c-4.661-16.327-14.758-17.978-21.176-17.172l18.184,15.434l-23.177-14.21
							c-0.481,0.182-0.756,0.309-0.756,0.309C272.328,314.07,295.125,306.506,295.125,306.506z"/>
					</g>
					<g>
						<path style="fill:#8EC102;" d="M324.574,306.506c-4.661-16.327-14.757-17.978-21.176-17.172l18.184,15.434l-23.177-14.21
							c-0.481,0.182-0.756,0.309-0.756,0.309C301.777,314.07,324.574,306.506,324.574,306.506z"/>
					</g>
					<g>
						<path style="fill:#8EC102;" d="M279.763,242.316c-13.257,1.284-15.961,8.84-16.248,13.906l14.484-11.844l-14.246,15.87
							c0.072,0.397,0.132,0.627,0.132,0.627C282.37,260.976,279.763,242.316,279.763,242.316z"/>
					</g>
					<g>
						<path style="fill:#8EC102;" d="M367.186,164.156c-13.996-9.612-22.829-4.451-27.262,0.261l23.849,0.306l-26.917,3.819
							c-0.255,0.446-0.386,0.72-0.386,0.72C354.438,184.513,367.186,164.156,367.186,164.156z"/>
					</g>
					<g>
						<path style="fill:#8EC102;" d="M346.494,192.546c-12.424-4.905-18.288,0.609-20.857,5.002l18.34-3.966l-19.965,7.669
							c-0.117,0.387-0.169,0.62-0.169,0.62C340.305,210.4,346.494,192.546,346.494,192.546z"/>
					</g>
					<g>
						<path style="fill:#8EC102;" d="M375.059,127.577c-13.502,1.817-15.978,9.643-16.079,14.832l14.354-12.657l-13.958,16.763
							c0.089,0.403,0.158,0.636,0.158,0.636C378.434,146.551,375.059,127.577,375.059,127.577z"/>
					</g>
					<g>
						<path style="fill:#8EC102;" d="M347.374,92.574c-16.154,5.23-17.45,15.378-16.42,21.764l14.788-18.714l-13.39,23.661
							c0.199,0.474,0.336,0.745,0.336,0.745C355.732,115.092,347.374,92.574,347.374,92.574z"/>
					</g>
					<g>
						<path style="fill:#8EC102;" d="M300.094,121.024c-12.38,4.008-13.374,11.786-12.584,16.68l11.334-14.342l-10.262,18.134
							c0.152,0.363,0.257,0.571,0.257,0.571C306.499,138.282,300.094,121.024,300.094,121.024z"/>
					</g>
					<g>
						<path style="fill:#8EC102;" d="M327.088,74.396c-12.38,4.008-13.374,11.786-12.584,16.68l11.334-14.342l-10.262,18.134
							c0.152,0.363,0.257,0.571,0.257,0.571C333.493,91.655,327.088,74.396,327.088,74.396z"/>
					</g>
					<g>
						<path style="fill:#8EC102;" d="M385.821,164.261c-12.989-0.782-16.751,6.098-17.8,10.943l15.783-9.222l-16.167,13.144
							c0.009,0.394,0.031,0.625,0.031,0.625C385.492,182.667,385.821,164.261,385.821,164.261z"/>
					</g>
					<g>
						<path style="fill:#8EC102;" d="M382.931,188.466c-12.903,1.686-15.297,9.152-15.412,14.109l13.757-12.038l-13.393,15.961
							c0.083,0.385,0.149,0.608,0.149,0.608C386.086,206.602,382.931,188.466,382.931,188.466z"/>
					</g>
					<g>
						<path style="fill:#8EC102;" d="M272.358,139.956c9.289,3.007,10.034,8.843,9.442,12.515l-8.503-10.761l7.699,13.605
							c-0.114,0.272-0.193,0.428-0.193,0.428C267.552,152.904,272.358,139.956,272.358,139.956z"/>
					</g>
					<g>
						<path style="fill:#8EC102;" d="M346.222,211.525c4.092,6.611,1.539,10.539-0.712,12.464l0.378-10.916l-2.332,12.229
							c-0.21,0.107-0.338,0.161-0.338,0.161C336.633,216.914,346.222,211.525,346.222,211.525z"/>
					</g>
					<g>
						<path style="fill:#8EC102;" d="M293.459,88.822c4.092,6.611,1.539,10.539-0.712,12.465l0.378-10.916l-2.332,12.229
							c-0.21,0.107-0.338,0.161-0.338,0.161C283.871,94.211,293.459,88.822,293.459,88.822z"/>
					</g>
					<g>
						<path style="fill:#8EC102;" d="M252.944,58.772c7.405,2.371,8.014,7.016,7.551,9.942l-6.799-8.548l6.166,10.815
							c-0.09,0.217-0.152,0.342-0.152,0.342C249.15,69.096,252.944,58.772,252.944,58.772z"/>
					</g>
					<g>
						<path style="fill:#8EC102;" d="M281.965,58.889c7.417,11.983,2.79,19.103-1.291,22.592l0.686-19.785l-4.227,22.165
							c-0.38,0.193-0.612,0.291-0.612,0.291C264.586,68.656,281.965,58.889,281.965,58.889z"/>
					</g>
					<g>
						<path style="fill:#8EC102;" d="M329.348,216.564c13.061,4.229,14.11,12.434,13.277,17.598l-11.957-15.131l10.826,19.131
							c-0.161,0.383-0.271,0.602-0.271,0.602C322.59,234.771,329.348,216.564,329.348,216.564z"/>
					</g>
					<g>
						<path style="fill:#8EC102;" d="M357.164,189.667c5.785,6.737,3.597,11.62,1.397,14.19l-1.5-12.383l-0.473,14.21
							c-0.218,0.157-0.353,0.241-0.353,0.241C347.296,197.44,357.164,189.667,357.164,189.667z"/>
					</g>
					<g>
						<path style="fill:#8EC102;" d="M280.947,227.075c9.289,3.007,10.034,8.843,9.442,12.515l-8.503-10.761l7.699,13.605
							c-0.114,0.273-0.193,0.428-0.193,0.428C276.141,240.023,280.947,227.075,280.947,227.075z"/>
					</g>
					<g>
						<path style="fill:#8EC102;" d="M283.393,323.089c-9.705-1.064-11.617-6.627-11.78-10.344l10.506,8.816l-10.295-11.764
							c0.057-0.29,0.102-0.458,0.102-0.458C285.477,309.435,283.393,323.089,283.393,323.089z"/>
					</g>
					<g>
						<path style="fill:#8EC102;" d="M357.691,108.68c4.519,8.655,0.961,13.34-2.035,15.544l1.475-13.635l-4.042,15.101
							c-0.272,0.114-0.438,0.17-0.438,0.17C345.188,114.549,357.691,108.68,357.691,108.68z"/>
					</g>
					<g>
						<path style="fill:#8EC102;" d="M310.197,109.853c11.005,3.563,11.889,10.477,11.187,14.828l-10.075-12.749l9.122,16.12
							c-0.135,0.323-0.229,0.507-0.229,0.507C304.503,125.195,310.197,109.853,310.197,109.853z"/>
					</g>
					<g>
						<path style="fill:#8EC102;" d="M300.357,63.264c8.159,8.201,5.783,14.753,3.169,18.302l-3.131-15.945l0.743,18.507
							c-0.268,0.225-0.435,0.347-0.435,0.347C288.279,74.304,300.357,63.264,300.357,63.264z"/>
					</g>
					<g>
						<path style="fill:#8EC102;" d="M256.184,77.988c8.159,8.201,5.783,14.753,3.169,18.302l-3.131-15.945l0.743,18.507
							c-0.268,0.225-0.435,0.347-0.435,0.347C244.106,89.029,256.184,77.988,256.184,77.988z"/>
					</g>
					<g>
						<path style="fill:#8EC102;" d="M319.02,185.486c4.563,10.63-0.06,15.846-3.797,18.182l2.964-15.977l-6.129,17.479
							c-0.332,0.111-0.532,0.162-0.532,0.162C303.724,191.3,319.02,185.486,319.02,185.486z"/>
					</g>
					<g>
						<path style="fill:#8EC102;" d="M321.754,272.05c-4.425,8.416-10.148,8.165-13.574,6.987l11.736-6.378l-14.332,5.135
							c-0.243-0.155-0.379-0.256-0.379-0.256C310.124,265.293,321.754,272.05,321.754,272.05z"/>
					</g>
					<g>
						<path style="fill:#8EC102;" d="M273.162,161.348c-14.268,9.204-12.915,19.344-10.278,25.252l9.485-21.884l-6.863,26.306
							c0.314,0.407,0.516,0.634,0.516,0.634C287.023,180.964,273.162,161.348,273.162,161.348z"/>
					</g>
					<g>
						<g>
							<path style="fill:#8EC102;" d="M178.93,167.423c16.154,5.23,17.45,15.378,16.42,21.764l-14.788-18.714l13.389,23.661
								c-0.199,0.474-0.335,0.745-0.335,0.745C170.573,189.941,178.93,167.423,178.93,167.423z"/>
						</g>
						<g>
							<path style="fill:#8EC102;" d="M179.784,231.872c16.9,1.637,20.347,11.269,20.713,17.728l-18.464-15.099l18.161,20.231
								c-0.092,0.505-0.168,0.799-0.168,0.799C176.46,255.661,179.784,231.872,179.784,231.872z"/>
						</g>
						<g>
							<path style="fill:#8EC102;" d="M142.653,277.878c10.493-13.348,20.464-11.055,26.1-7.88l-22.673,7.404l26.831-4.381
								c0.376,0.35,0.583,0.572,0.583,0.572C160.891,293.507,142.653,277.878,142.653,277.878z"/>
						</g>
						<g>
							<path style="fill:#8EC102;" d="M124.362,266.742c9.609-8.726,16.833-5.729,20.677-2.618l-18.034,2.695l20.783,0.113
								c0.239,0.312,0.367,0.506,0.367,0.506C136.121,280.845,124.362,266.742,124.362,266.742z"/>
						</g>
						<g>
							<path style="fill:#8EC102;" d="M115.161,229.713c12.368-3.941,17.691,1.789,19.894,6.217l-17.521-5.047l18.855,8.745
								c0.088,0.383,0.123,0.612,0.123,0.612C119.991,247.428,115.161,229.713,115.161,229.713z"/>
						</g>
						<g>
							<path style="fill:#8EC102;" d="M200.504,315.096c4.661-16.327,14.757-17.978,21.176-17.172l-18.184,15.434l23.177-14.21
								c0.481,0.182,0.756,0.309,0.756,0.309C223.301,322.659,200.504,315.096,200.504,315.096z"/>
						</g>
						<g>
							<path style="fill:#8EC102;" d="M174.736,305.279c4.661-16.327,14.757-17.978,21.176-17.172l-18.184,15.434l23.177-14.21
								c0.481,0.182,0.756,0.309,0.756,0.309C197.534,312.843,174.736,305.279,174.736,305.279z"/>
						</g>
						<g>
							<path style="fill:#8EC102;" d="M212.185,243.543c13.257,1.284,15.961,8.84,16.248,13.907l-14.484-11.844l14.246,15.87
								c-0.072,0.397-0.132,0.627-0.132,0.627C209.578,262.203,212.185,243.543,212.185,243.543z"/>
						</g>
						<g>
							<path style="fill:#8EC102;" d="M165.168,230.36c12.496,4.72,13.131,12.744,12.08,17.723l-10.913-15.264l9.627,19.099
								c-0.174,0.365-0.292,0.572-0.292,0.572C157.749,247.739,165.168,230.36,165.168,230.36z"/>
						</g>
						<g>
							<path style="fill:#8EC102;" d="M118.116,141.074c13.502,1.817,15.978,9.643,16.079,14.833l-14.354-12.658l13.958,16.763
								c-0.089,0.403-0.158,0.636-0.158,0.636C114.742,160.049,118.116,141.074,118.116,141.074z"/>
						</g>
						<g>
							<path style="fill:#8EC102;" d="M156.844,91.347c16.154,5.23,17.45,15.378,16.42,21.764l-14.788-18.714l13.389,23.661
								c-0.198,0.474-0.335,0.745-0.335,0.745C148.486,113.865,156.844,91.347,156.844,91.347z"/>
						</g>
						<g>
							<path style="fill:#8EC102;" d="M203.831,112.343c15.992,5.177,17.276,15.224,16.256,21.547l-14.64-18.527l13.256,23.424
								c-0.197,0.469-0.332,0.737-0.332,0.737C195.557,134.636,203.831,112.343,203.831,112.343z"/>
						</g>
						<g>
							<path style="fill:#8EC102;" d="M177.13,74.396c12.38,4.008,13.374,11.786,12.584,16.68l-11.334-14.342l10.262,18.134
								c-0.152,0.363-0.257,0.571-0.257,0.571C170.725,91.655,177.13,74.396,177.13,74.396z"/>
						</g>
						<g>
							<path style="fill:#8EC102;" d="M120.188,166.958c12.263-4.353,17.785,1.215,20.136,5.579l-17.721-4.485l19.178,8.146
								c0.1,0.381,0.143,0.609,0.143,0.609C125.607,184.551,120.188,166.958,120.188,166.958z"/>
						</g>
						<g>
							<path style="fill:#8EC102;" d="M114.179,195.774c9.037-9.363,16.461-6.84,20.512-3.981l-17.862,3.885l20.798-1.257
								c0.259,0.296,0.4,0.482,0.4,0.482C126.871,209.107,114.179,195.774,114.179,195.774z"/>
						</g>
						<g>
							<path style="fill:#8EC102;" d="M155.383,138.922c4.337,8.747,10.219,8.629,13.764,7.504l-11.891-6.833l14.587,5.62
								c0.253-0.153,0.395-0.254,0.395-0.254C167.487,132.269,155.383,138.922,155.383,138.922z"/>
						</g>
						<g>
							<path style="fill:#8EC102;" d="M163.34,157.376c-6.417,7.359-4.053,12.746-1.655,15.589l1.754-13.602l0.4,15.628
								c0.238,0.175,0.386,0.268,0.386,0.268C174.124,166.005,163.34,157.376,163.34,157.376z"/>
						</g>
						<g>
							<path style="fill:#8EC102;" d="M130.016,209.133c-4.017,6.631-1.576,10.53,0.588,12.433l-0.278-10.89l2.159,12.185
								c0.202,0.105,0.326,0.158,0.326,0.158C139.258,214.433,130.016,209.133,130.016,209.133z"/>
						</g>
						<g>
							<path style="fill:#8EC102;" d="M211.986,83.914c-4.092,6.611-1.539,10.539,0.712,12.465l-0.378-10.916l2.332,12.229
								c0.21,0.107,0.338,0.161,0.338,0.161C221.575,89.303,211.986,83.914,211.986,83.914z"/>
						</g>
						<g>
							<path style="fill:#8EC102;" d="M241.458,57.545c-7.405,2.371-8.014,7.016-7.551,9.942l6.799-8.548l-6.166,10.815
								c0.09,0.217,0.153,0.341,0.153,0.341C245.252,67.869,241.458,57.545,241.458,57.545z"/>
						</g>
						<g>
							<path style="fill:#8EC102;" d="M223.48,57.662c-7.417,11.983-2.79,19.102,1.291,22.592l-0.686-19.785l4.227,22.165
								c0.38,0.193,0.612,0.291,0.612,0.291C240.86,67.429,223.48,57.662,223.48,57.662z"/>
						</g>
						<g>
							<path style="fill:#8EC102;" d="M149.555,203.693c1.196,13.676,8.959,16.536,14.178,16.88l-12.069-15.042l16.221,14.835
								c0.409-0.071,0.648-0.13,0.648-0.13C168.813,201.184,149.555,203.693,149.555,203.693z"/>
						</g>
						<g>
							<path style="fill:#8EC102;" d="M135.946,205.168c1.405-8.95,7.33-9.747,11.256-9.23l-9.607,8.306l12.711-7.575
								c0.304,0.106,0.481,0.179,0.481,0.179C150.29,209.594,135.946,205.168,135.946,205.168z"/>
						</g>
						<g>
							<path style="fill:#8EC102;" d="M151.947,227.834c-1.574,7.053,1.866,9.722,4.43,10.724l-3.665-9.466l5.781,10.023
								c0.217,0.03,0.346,0.038,0.346,0.038C162.009,229.637,151.947,227.834,151.947,227.834z"/>
						</g>
						<g>
							<path style="fill:#8EC102;" d="M253.79,106.358c-1.574,7.053,1.866,9.721,4.43,10.724l-3.665-9.466l5.781,10.023
								c0.217,0.03,0.346,0.038,0.346,0.038C263.853,108.161,253.79,106.358,253.79,106.358z"/>
						</g>
						<g>
							<path style="fill:#8EC102;" d="M217.144,329.224c9.705-1.064,11.617-6.627,11.78-10.344l-10.506,8.816l10.295-11.764
								c-0.057-0.29-0.102-0.458-0.102-0.458C215.06,315.57,217.144,329.224,217.144,329.224z"/>
						</g>
						<g>
							<path style="fill:#8EC102;" d="M137.988,115.207c-8.781,16.817-1.868,25.922,3.954,30.205l-2.866-26.496l7.855,29.344
								c0.529,0.222,0.851,0.331,0.851,0.331C162.283,126.612,137.988,115.207,137.988,115.207z"/>
						</g>
						<g>
							<path style="fill:#8EC102;" d="M189.83,95.589c-5.541,10.154-1.429,15.782,2.073,18.458l-1.451-16.185l4.46,17.977
								c0.32,0.141,0.515,0.211,0.515,0.211C204.513,102.813,189.83,95.589,189.83,95.589z"/>
						</g>
						<g>
							<path style="fill:#8EC102;" d="M201.927,62.973c-4.073,10.827,0.783,15.827,4.623,17.99l-3.691-15.825l6.92,17.181
								c0.337,0.095,0.539,0.137,0.539,0.137C217.473,68.082,201.927,62.973,201.927,62.973z"/>
						</g>
						<g>
							<path style="fill:#8EC102;" d="M235.764,81.669c-8.158,8.201-5.783,14.753-3.169,18.302l3.131-15.945l-0.743,18.507
								c0.268,0.225,0.435,0.347,0.435,0.347C247.842,92.71,235.764,81.669,235.764,81.669z"/>
						</g>
						<g>
							<path style="fill:#8EC102;" d="M206.058,162.173c-4.563,10.63,0.06,15.846,3.797,18.182l-2.964-15.977l6.129,17.478
								c0.332,0.111,0.532,0.162,0.532,0.162C221.354,167.986,206.058,162.173,206.058,162.173z"/>
						</g>
						<g>
							<path style="fill:#8EC102;" d="M203.324,231.558c4.425,8.416,10.148,8.164,13.574,6.987l-11.736-6.378l14.332,5.135
								c0.243-0.155,0.379-0.256,0.379-0.256C214.954,224.801,203.324,231.558,203.324,231.558z"/>
						</g>
						<g>
							<path style="fill:#8EC102;" d="M222.467,173.618c14.268,9.204,12.915,19.344,10.278,25.252l-9.485-21.884l6.863,26.306
								c-0.314,0.407-0.516,0.634-0.516,0.634C208.606,193.234,222.467,173.618,222.467,173.618z"/>
						</g>
					</g>
				</g>
			</g>
		</g>
		<g>
			<path style="fill:none;stroke:#597B0B;stroke-width:8.2863;stroke-miterlimit:10;" d="M254.1,324.079
				c2.258,24.947,10.985,37.208,18.937,43.8c10.613,8.799,20.525,8.064,34.328,18.942c11.138,8.778,17.568,19.411,21.306,27.228"/>
			<path style="fill:none;stroke:#597B0B;stroke-width:8.2863;stroke-miterlimit:10;" d="M301.448,354.86
				c3.658,0.438,9.288,1.557,15.389,4.736c4.223,2.201,13.239,7.769,18.939,18.941c4.194,8.221,4.755,15.874,4.734,20.124"/>
			<path style="fill:none;stroke:#597B0B;stroke-width:8.2863;stroke-miterlimit:10;" d="M354.716,378.539
				c0,0-10.841,5.014-21.993-4.597"/>
			<g>
				<path style="fill:#597B0B;" d="M360.399,339.816c-2.344-0.768-4.695-1.138-6.939-1.027c-2.246,0.128-4.366,0.717-6.243,1.769
					c-1.896,1.06-3.622,2.592-5.433,4.539c-0.914,0.973-1.85,2.04-2.952,3.19c-1.125,1.178-2.422,2.329-3.728,3.356
					c-5.307,4.14-11.499,6.618-17.711,8.019c-6.241,1.397-12.591,1.744-18.906,1.222c-3.16-0.261-6.315-0.759-9.462-1.53
					c-0.787-0.19-1.573-0.405-2.358-0.634c-0.815-0.232-1.656-0.518-2.439-0.803c-1.584-0.579-3.103-1.235-4.592-1.959
					c-5.929-2.896-11.363-6.967-15.785-12.099c-2.211-2.558-4.147-5.372-5.772-8.349c-0.404-0.745-0.787-1.501-1.158-2.263
					l-0.97-2.118c-0.518-1.137-1.101-2.3-1.717-3.484l-4.078-7.576c-0.718-1.395-1.454-2.862-2.159-4.668
					c-0.349-0.911-0.696-1.907-0.979-3.155c-0.265-1.25-0.529-2.779-0.288-4.898l16.182,2.21c0.066-0.691-0.044-0.774-0.02-0.623
					c0.01,0.156,0.096,0.532,0.237,0.969c0.282,0.889,0.754,2.029,1.29,3.213l3.668,7.795c0.634,1.398,1.262,2.836,1.852,4.346
					l0.713,1.843c0.225,0.543,0.456,1.084,0.703,1.617c0.994,2.128,2.202,4.15,3.63,6.029c2.841,3.76,6.574,6.976,10.815,9.384
					c1.057,0.598,2.144,1.15,3.229,1.625c0.552,0.239,1.057,0.451,1.612,0.645c0.581,0.207,1.168,0.408,1.767,0.589
					c2.389,0.738,4.892,1.293,7.435,1.654c5.086,0.73,10.34,0.745,15.363-0.077c5.015-0.817,9.833-2.484,13.769-5.203
					c0.988-0.693,1.894-1.391,2.805-2.236c0.938-0.867,1.959-1.899,3.073-2.956c2.219-2.12,4.923-4.358,8.156-5.903
					c3.236-1.562,6.847-2.306,10.333-2.273c3.501,0.039,6.864,0.832,9.903,2.033L360.399,339.816z"/>
			</g>
			<path style="fill:none;stroke:#597B0B;stroke-width:8.2863;stroke-miterlimit:10;" d="M365.372,351.313
				c-2.106-1.695-4.852-3.46-8.286-4.736c-12.466-4.63-24.193,0.836-27.227,2.366"/>
			<g>
				<path style="fill:#597B0B;" d="M261.9,312.184c0.649,6.212,1.113,12.488,1.239,18.863c0.088,3.178,0.017,6.406-0.105,9.639
					c-0.179,3.251-0.442,6.521-0.93,9.833c-0.504,3.314-1.196,6.661-2.233,10.019c-0.513,1.677-1.129,3.357-1.848,5.02
					c-0.75,1.734-1.495,3.155-2.278,4.622c-1.572,2.919-3.332,5.696-5.02,8.257c-1.691,2.57-3.271,4.927-4.61,7.286
					c-1.339,2.357-2.472,4.764-3.447,7.312c-0.464,1.286-0.929,2.578-1.325,3.917c-0.209,0.643-0.416,1.36-0.623,2.083l-0.598,2.118
					c-1.54,5.553-2.613,10.984-2.367,16.126c0.213,5.132,1.886,9.77,5.134,13.477c3.248,3.688,8.048,6.259,13.308,7.661
					l-1.842,8.079c-3.264-0.644-6.514-1.654-9.636-3.13c-3.11-1.494-6.096-3.474-8.673-5.995c-2.573-2.517-4.682-5.575-6.201-8.873
					c-1.516-3.306-2.396-6.831-2.799-10.295c-0.801-6.958,0.167-13.638,1.421-19.822l0.482-2.29
					c0.159-0.744,0.321-1.494,0.522-2.308c0.357-1.592,0.804-3.185,1.264-4.78c0.969-3.182,2.206-6.361,3.657-9.373
					c1.45-3.014,3.067-5.8,4.528-8.393c1.47-2.599,2.785-5.04,3.916-7.535c0.561-1.243,1.124-2.552,1.494-3.63
					c0.401-1.145,0.751-2.338,1.035-3.578c0.579-2.474,0.946-5.1,1.17-7.791c0.21-2.701,0.245-5.479,0.211-8.276
					c-0.09-2.816-0.212-5.642-0.49-8.505c-0.502-5.711-1.318-11.48-2.322-17.254L261.9,312.184z"/>
			</g>
			<path style="fill:none;stroke:#597B0B;stroke-width:8.2863;stroke-miterlimit:10;" d="M276.584,438.905
				c-0.521-3.68-1.861-9.265-5.918-14.206c-5.889-7.172-12.783-7.237-18.939-11.839c-5.081-3.798-10.876-11.594-11.836-29.595"/>
			<path style="fill:none;stroke:#597B0B;stroke-width:8.2863;stroke-miterlimit:10;" d="M270.667,409.311
				c-2.155-3.141-4.734-8.013-3.55-13.022c1.329-5.622,6.336-6.912,8.287-11.837c1.489-3.76,1.395-10.136-7.101-21.308"/>
			<path style="fill:none;stroke:#597B0B;stroke-width:8.2863;stroke-miterlimit:10;" d="M304.999,364.331
				c-2.012,1.516-8.448,5.964-17.757,5.918c-10.297-0.051-17.15-5.567-18.94-7.104"/>
			<path style="fill:none;stroke:#597B0B;stroke-width:8.2863;stroke-miterlimit:10;" d="M303.811,429.437
				c-1.813-2.202-4.329-5.775-5.918-10.654c-2.308-7.086-1.113-12.17-1.182-18.94c-0.054-5.258-0.886-12.963-4.733-22.492"/>
			<g>
				<g>
					<path style="fill:#597B0B;" d="M252.427,324.834c-0.692,5.444-1.697,10.904-3.218,16.319
						c-1.535,5.405-3.531,10.793-6.391,15.89c-2.815,5.093-6.45,9.922-10.928,13.902c-2.225,1.992-4.649,3.766-7.194,5.324
						c-2.561,1.525-5.211,2.768-7.766,3.813c-2.557,1.048-5.019,1.919-7.328,2.798c-2.309,0.877-4.495,1.789-6.612,2.801
						c-4.188,2.051-8.159,4.586-11.825,7.641c-7.361,6.035-13.374,13.811-17.909,22.505l-7.475-3.576
						c2.16-4.913,4.756-9.69,7.828-14.194c3.092-4.486,6.628-8.728,10.654-12.509c3.977-3.806,8.495-7.176,13.355-9.979
						c2.428-1.377,4.911-2.612,7.334-3.727c2.423-1.115,4.741-2.122,6.87-3.174c2.132-1.049,4.067-2.143,5.843-3.372
						c1.749-1.256,3.394-2.644,4.893-4.187c3.003-3.071,5.398-6.737,7.274-10.765c3.77-8.075,5.381-17.493,5.943-27.021
						L252.427,324.834z"/>
				</g>
				<path style="fill:none;stroke:#597B0B;stroke-width:8.2863;stroke-miterlimit:10;" d="M203.197,353.67
					c-4.269-0.087-12.048,0.367-20.124,4.734c-9.807,5.302-14.517,13.381-17.758,18.939c-4.417,7.575-6.594,15.054-7.635,21.307"/>
				<path style="fill:none;stroke:#597B0B;stroke-width:8.2863;stroke-miterlimit:10;" d="M147.028,376.157
					c0,0,10.84,5.016,21.993-4.594"/>
				<g>
					<path style="fill:#597B0B;" d="M134.955,332.017c3.069-1.273,6.49-2.134,10.078-2.202c3.574-0.084,7.292,0.701,10.635,2.29
						c3.329,1.596,6.092,3.896,8.364,6.005c1.14,1.052,2.182,2.063,3.114,2.857c0.925,0.774,1.837,1.46,2.855,2.078
						c4.008,2.492,8.844,3.917,13.892,4.473c5.05,0.558,10.314,0.312,15.395-0.589c2.537-0.458,5.035-1.075,7.384-1.867
						c0.599-0.203,1.153-0.396,1.672-0.613c0.531-0.216,1.06-0.445,1.584-0.694c1.048-0.493,2.075-1.051,3.07-1.654
						c3.987-2.429,7.383-5.661,10.009-9.435c1.323-1.882,2.451-3.913,3.412-6.045c0.437-0.99,1.02-2.373,1.509-3.595
						c0.503-1.253,0.984-2.503,1.422-3.74c0.874-2.465,1.652-4.935,2.111-7.143c0.243-1.105,0.399-2.148,0.436-2.944
						c0.063-0.768-0.092-1.396-0.098-0.874l22.045-3.744c0.438,3.411,0.074,5.726-0.283,7.836c-0.39,2.089-0.907,3.89-1.473,5.585
						c-1.125,3.406-2.453,6.388-3.839,9.295c-0.694,1.45-1.414,2.858-2.149,4.245c-0.752,1.416-1.429,2.663-2.348,4.254
						c-1.772,3.016-3.82,5.909-6.156,8.567c-4.652,5.339-10.419,9.715-16.773,12.688c-1.591,0.743-3.216,1.408-4.882,1.98
						c-0.831,0.289-1.676,0.551-2.528,0.793c-0.863,0.248-1.713,0.45-2.518,0.637c-3.276,0.749-6.523,1.21-9.772,1.47
						c-6.491,0.492-13.01,0.17-19.468-1.195c-6.424-1.371-12.886-3.886-18.422-8.15c-1.378-1.044-2.694-2.252-3.885-3.482
						c-1.17-1.226-2.115-2.351-3.027-3.371c-1.805-2.042-3.467-3.651-5.31-4.791c-1.829-1.103-3.904-1.807-6.164-1.992
						c-2.25-0.19-4.644,0.121-7.045,0.847L134.955,332.017z"/>
				</g>
				<path style="fill:none;stroke:#597B0B;stroke-width:8.2863;stroke-miterlimit:10;" d="M132.825,351.298
					c2.106-1.695,4.852-3.46,8.287-4.734c12.467-4.628,24.193,0.839,27.226,2.369"/>
				<path style="fill:none;stroke:#597B0B;stroke-width:8.2863;stroke-miterlimit:10;" d="M227.521,409.308
					c2.155-3.14,4.735-8.013,3.552-13.021c-1.328-5.622-6.335-6.913-8.286-11.838c-1.489-3.76-1.393-10.136,7.104-21.307"/>
				<path style="fill:none;stroke:#597B0B;stroke-width:8.2863;stroke-miterlimit:10;" d="M193.195,364.323
					c2.012,1.517,8.447,5.965,17.756,5.92c10.297-0.05,17.151-5.564,18.941-7.101"/>
				<path style="fill:none;stroke:#597B0B;stroke-width:8.2863;stroke-miterlimit:10;" d="M194.375,429.43
					c1.813-2.202,4.329-5.774,5.919-10.653c2.309-7.086,1.114-12.17,1.185-18.94c0.055-5.258,0.888-12.963,4.736-22.491"/>
			</g>
			<path style="fill:none;stroke:#597B0B;stroke-width:8.2863;stroke-miterlimit:10;" d="M222.131,435.35
				c-0.355-6.641-1.635-16.342-5.917-27.227c-3.941-10.018-9.038-17.512-13.02-22.492"/>
		</g>
	</g>
</g>
</svg>
